<svg version="1.1" width="1200" height="100" xmlns="http://www.w3.org/2000/svg">
  <g fill="#7971ea" transform="scale(0.4)">
    <path d="m224 64l-96 32l-96-32l96-32Z" opacity=".2" />
    <path
      d="m226.53 56.41l-96-32a8 8 0 0 0-5.06 0l-96 32a8 8 0 0 0-5.4 6.75A5 5 0 0 0 24 64v80a8 8 0 0 0 16 0V75.1l33.59 11.19a64 64 0 0 0 20.65 88.05c-18 7.06-33.56 19.83-44.94 37.29a8 8 0 1 0 13.4 8.74C77.77 197.25 101.57 184 128 184s50.23 13.25 65.3 36.37a8 8 0 0 0 13.4-8.74c-11.38-17.46-27-30.23-44.94-37.29a64 64 0 0 0 20.65-88l44.12-14.7a8 8 0 0 0 0-15.18ZM176 120a48 48 0 1 1-86.65-28.45l36.12 12a8 8 0 0 0 5.06 0l36.12-12A47.89 47.89 0 0 1 176 120m-48-32.43L57.3 64L128 40.43L198.7 64Z" />
  </g>
  <text x="110" y="50" font-size="48">
    Programação de Soluções Computacionais
  </text>
  <text x="114" y="90" font-size="18pt">
    prof. Marcelo Amorim
  </text>
</svg>